#Comment line ignore any data following # character 
#Hierarchical Translation and Rotation (.htr) file 
[Header]	
#Header keywords are followed by a single value 
FileType HTR		#Single word string
DataType HTRS		#Translation followed by rotation and scale data
FileVersion 1		#integer
NumSegments 64		#integer
NumFrames 3		#integer
DataFrameRate 30		#integer, data frame rate in this file
EulerRotationOrder ZYX
CalibrationUnits mm
RotationUnits Degrees
GlobalAxisofGravity Y
BoneLengthAxis Y
ScaleFactor 1.00
[SegmentNames&Hierarchy]
#CHILD	PARENT
Pinger_Root GLOBAL
Pelvis Pinger_Root
L_Hip Pelvis
R_Hip Pelvis
Rear_Leg01 Pelvis
Spine1 Pelvis
L_Leg01 L_Hip
L_Leg02 L_Leg01
L_Leg03 L_Leg02
L_Foot L_Leg03
L_Toe1_01 L_Foot
L_Toe2_01 L_Foot
L_Toe3_01 L_Foot
planeAlignerLeft L_Foot
L_Toe1_02 L_Toe1_01
L_Toe1_03 L_Toe1_02
L_Toe2_02 L_Toe2_01
L_Toe2_03 L_Toe2_02
L_Toe3_02 L_Toe3_01
L_Toe3_03 L_Toe3_02
planeLockWeightLeft planeAlignerLeft
R_Leg01 R_Hip
R_Leg02 R_Leg01
R_Leg03 R_Leg02
R_Foot R_Leg03
planeAlignerRight R_Foot
R_Toe1_01 R_Foot
R_Toe2_01 R_Foot
R_Toe3_01 R_Foot
planeLockWeightRight planeAlignerRight
R_Toe1_02 R_Toe1_01
R_Toe1_03 R_Toe1_02
R_Toe2_02 R_Toe2_01
R_Toe2_03 R_Toe2_02
R_Toe3_02 R_Toe3_01
R_Toe3_03 R_Toe3_02
Rear_Leg02 Rear_Leg01
Rear_Leg03 Rear_Leg02
Rear_Leg04 Rear_Leg03
Rear_Foot Rear_Leg04
planeAlignerCenter Rear_Foot
Rear_Toe1_01 Rear_Foot
Rear_Toe2_01 Rear_Foot
Rear_Toe3_01 Rear_Foot
planeLockWeightCenter planeAlignerCenter
Rear_Toe1_02 Rear_Toe1_01
Rear_Toe1_03 Rear_Toe1_02
Rear_Toe2_02 Rear_Toe2_01
Rear_Toe2_03 Rear_Toe2_02
Rear_Toe3_02 Rear_Toe3_01
Rear_Toe3_03 Rear_Toe3_02
Back_Bone Spine1
Head Spine1
Motor_Bone Back_Bone
Ping_Mechanism Back_Bone
BN_LookIK Head
bottomMouth Head
L_Mouth01 Head
L_mouthFront Head
mouthGun Head
R_Mouth01 Head
R_mouthFront Head
TopMouth Head
weapon_bone Head
[BasePosition]
#SegmentName Tx, Ty, Tz, Rx, Ry, Rz, BoneLength
Pinger_Root 0.000000 0.000000 0.000000 -90.000000 0.000000 0.000000 10.000000 
Pelvis 0.000000 0.000000 0.000000 0.000000 0.000000 0.000000 10.000000 
L_Hip 0.000000 0.000000 0.000000 0.000000 0.000000 0.000000 10.000000 
R_Hip 0.000000 0.000000 0.000000 0.000000 0.000000 0.000000 10.000000 
Rear_Leg01 0.000000 0.000000 0.000000 0.000000 0.000000 0.000000 10.000000 
Spine1 0.000000 0.000000 0.000000 0.000000 0.000000 0.000000 10.000000 
L_Leg01 0.000000 0.000000 0.000000 0.000000 0.000000 0.000000 10.000000 
L_Leg02 0.000000 0.000000 0.000000 0.000000 0.000000 0.000000 10.000000 
L_Leg03 0.000000 0.000000 0.000000 0.000000 0.000000 0.000000 10.000000 
L_Foot 0.000000 0.000000 0.000000 0.000000 0.000000 0.000000 10.000000 
L_Toe1_01 0.000000 0.000000 0.000000 0.000000 0.000000 0.000000 10.000000 
L_Toe2_01 0.000000 0.000000 0.000000 0.000000 0.000000 0.000000 10.000000 
L_Toe3_01 0.000000 0.000000 0.000000 0.000000 0.000000 0.000000 10.000000 
planeAlignerLeft 0.000000 0.000000 0.000000 0.000000 0.000000 0.000000 10.000000 
L_Toe1_02 0.000000 0.000000 0.000000 0.000000 0.000000 0.000000 10.000000 
L_Toe1_03 0.000000 0.000000 0.000000 0.000000 0.000000 0.000000 10.000000 
L_Toe2_02 0.000000 0.000000 0.000000 0.000000 0.000000 0.000000 10.000000 
L_Toe2_03 0.000000 0.000000 0.000000 0.000000 0.000000 0.000000 10.000000 
L_Toe3_02 0.000000 0.000000 0.000000 0.000000 0.000000 0.000000 10.000000 
L_Toe3_03 0.000000 0.000000 0.000000 0.000000 0.000000 0.000000 10.000000 
planeLockWeightLeft 0.000000 0.000000 0.000000 0.000000 0.000000 0.000000 10.000000 
R_Leg01 0.000000 0.000000 0.000000 0.000000 0.000000 0.000000 10.000000 
R_Leg02 0.000000 0.000000 0.000000 0.000000 0.000000 0.000000 10.000000 
R_Leg03 0.000000 0.000000 0.000000 0.000000 0.000000 0.000000 10.000000 
R_Foot 0.000000 0.000000 0.000000 0.000000 0.000000 0.000000 10.000000 
planeAlignerRight 0.000000 0.000000 0.000000 0.000000 0.000000 0.000000 10.000000 
R_Toe1_01 0.000000 0.000000 0.000000 0.000000 0.000000 0.000000 10.000000 
R_Toe2_01 0.000000 0.000000 0.000000 0.000000 0.000000 0.000000 10.000000 
R_Toe3_01 0.000000 0.000000 0.000000 0.000000 0.000000 0.000000 10.000000 
planeLockWeightRight 0.000000 0.000000 0.000000 0.000000 0.000000 0.000000 10.000000 
R_Toe1_02 0.000000 0.000000 0.000000 0.000000 0.000000 0.000000 10.000000 
R_Toe1_03 0.000000 0.000000 0.000000 0.000000 0.000000 0.000000 10.000000 
R_Toe2_02 0.000000 0.000000 0.000000 0.000000 0.000000 0.000000 10.000000 
R_Toe2_03 0.000000 0.000000 0.000000 0.000000 0.000000 0.000000 10.000000 
R_Toe3_02 0.000000 0.000000 0.000000 0.000000 0.000000 0.000000 10.000000 
R_Toe3_03 0.000000 0.000000 0.000000 0.000000 0.000000 0.000000 10.000000 
Rear_Leg02 0.000000 0.000000 0.000000 0.000000 0.000000 0.000000 10.000000 
Rear_Leg03 0.000000 0.000000 0.000000 0.000000 0.000000 0.000000 10.000000 
Rear_Leg04 0.000000 0.000000 0.000000 0.000000 0.000000 0.000000 10.000000 
Rear_Foot 0.000000 0.000000 0.000000 0.000000 0.000000 0.000000 10.000000 
planeAlignerCenter 0.000000 0.000000 0.000000 0.000000 0.000000 0.000000 10.000000 
Rear_Toe1_01 0.000000 0.000000 0.000000 0.000000 0.000000 0.000000 10.000000 
Rear_Toe2_01 0.000000 0.000000 0.000000 0.000000 0.000000 0.000000 10.000000 
Rear_Toe3_01 0.000000 0.000000 0.000000 0.000000 0.000000 0.000000 10.000000 
planeLockWeightCenter 0.000000 0.000000 0.000000 0.000000 0.000000 0.000000 10.000000 
Rear_Toe1_02 0.000000 0.000000 0.000000 0.000000 0.000000 0.000000 10.000000 
Rear_Toe1_03 0.000000 0.000000 0.000000 0.000000 0.000000 0.000000 10.000000 
Rear_Toe2_02 0.000000 0.000000 0.000000 0.000000 0.000000 0.000000 10.000000 
Rear_Toe2_03 0.000000 0.000000 0.000000 0.000000 0.000000 0.000000 10.000000 
Rear_Toe3_02 0.000000 0.000000 0.000000 0.000000 0.000000 0.000000 10.000000 
Rear_Toe3_03 0.000000 0.000000 0.000000 0.000000 0.000000 0.000000 10.000000 
Back_Bone 0.000000 0.000000 0.000000 0.000000 0.000000 0.000000 10.000000 
Head 0.000000 0.000000 0.000000 0.000000 0.000000 0.000000 10.000000 
Motor_Bone 0.000000 0.000000 0.000000 0.000000 0.000000 0.000000 10.000000 
Ping_Mechanism 0.000000 0.000000 0.000000 0.000000 0.000000 0.000000 10.000000 
BN_LookIK 0.000000 0.000000 0.000000 0.000000 0.000000 0.000000 10.000000 
bottomMouth 0.000000 0.000000 0.000000 0.000000 0.000000 0.000000 10.000000 
L_Mouth01 0.000000 0.000000 0.000000 0.000000 0.000000 0.000000 10.000000 
L_mouthFront 0.000000 0.000000 0.000000 0.000000 0.000000 0.000000 10.000000 
mouthGun 0.000000 0.000000 0.000000 0.000000 0.000000 0.000000 10.000000 
R_Mouth01 0.000000 0.000000 0.000000 0.000000 0.000000 0.000000 10.000000 
R_mouthFront 0.000000 0.000000 0.000000 0.000000 0.000000 0.000000 10.000000 
TopMouth 0.000000 0.000000 0.000000 0.000000 0.000000 0.000000 10.000000 
weapon_bone 0.000000 0.000000 0.000000 0.000000 0.000000 0.000000 10.000000 
#Beginning of Data. Separated by tabs
#Fr	Tx	Ty	Tz	Rx	Ry	Rz	SF
[Pinger_Root]
121 0.000000 0.000000 0.000000 -0.000069 0.000029 44.999935 0.000000
122 0.000000 0.000000 0.000000 -0.000069 0.000029 44.999935 0.000000
123 0.000000 0.000000 0.000000 -0.000069 0.000029 44.999935 0.000000
[Pelvis]
121 260.280304 839.609253 4429.416504 -100.416946 -85.974449 92.747971 4515.796875
122 260.986115 838.903442 4429.665527 -100.410339 -85.974159 92.748070 4515.950684
123 261.691925 838.197571 4429.914551 -100.403641 -85.973816 92.748062 4516.104492
[L_Hip]
121 5.766392 125.831482 872.656799 160.158691 -45.484905 122.312202 881.701050
122 5.766392 125.831482 872.656799 160.158691 -45.484905 122.312202 881.701050
123 5.766392 125.831482 872.656799 160.158691 -45.484905 122.312202 881.701050
[R_Hip]
121 5.765438 125.836372 -872.654907 38.087841 49.812687 125.703735 881.699829
122 5.765438 125.836372 -872.654907 38.087841 49.812687 125.703735 881.699829
123 5.765438 125.836372 -872.654907 38.087830 49.812672 125.703735 881.699829
[Rear_Leg01]
121 -192.298416 -925.602966 -0.001907 167.920959 -8.895939 -161.430893 945.367432
122 -192.298416 -925.602966 -0.001907 167.921066 -8.897618 -161.435135 945.367432
123 -192.298416 -925.602966 -0.001907 167.921173 -8.899295 -161.439362 945.367432
[Spine1]
121 290.604584 5.007505 0.000477 7.263403 -0.250721 19.315138 290.647736
122 290.604584 5.007505 0.000477 7.264927 -0.285867 19.310423 290.647736
123 290.604584 5.007505 0.000477 7.266457 -0.321013 19.305706 290.647736
[L_Leg01]
121 761.932007 -0.002384 -0.069261 16.071405 -22.221729 -8.463085 761.932068
122 761.932007 -0.002384 -0.069261 16.078114 -22.218409 -8.481782 761.932068
123 761.932007 -0.002384 -0.069261 16.084818 -22.215082 -8.500475 761.932068
[L_Leg02]
121 1441.140503 -0.000954 -0.000715 2.182625 -0.175190 -125.065140 1441.140503
122 1441.140503 -0.000954 -0.000715 2.178560 -0.174863 -125.026123 1441.140503
123 1441.140503 -0.000954 -0.000715 2.174496 -0.174533 -124.987122 1441.140503
[L_Leg03]
121 1686.963989 -0.000715 -0.000954 -0.027442 0.010360 117.673653 1686.963989
122 1686.963989 -0.000715 -0.000954 -0.027443 0.010355 117.653641 1686.963989
123 1686.963989 -0.000715 -0.000954 -0.027445 0.010351 117.633606 1686.963989
[L_Foot]
121 3041.570068 -30.715107 11.297464 10.606055 13.034372 51.262257 3041.746094
122 3041.570068 -30.715107 11.297464 10.601863 13.035051 51.243141 3041.746094
123 3041.570068 -30.715107 11.297464 10.597672 13.035730 51.224022 3041.746094
[L_Toe1_01]
121 -188.216690 -224.732346 -21.137953 93.719086 -6.862507 -171.970444 293.899567
122 -188.216690 -224.732346 -21.137953 93.719086 -6.862507 -171.970444 293.899567
123 -188.216690 -224.732346 -21.137953 93.719086 -6.862507 -171.970444 293.899567
[L_Toe2_01]
121 200.746536 -219.926590 148.838394 -90.023987 -26.311703 -52.677628 332.896027
122 200.746536 -219.926590 148.838394 -90.023987 -26.311703 -52.677628 332.896027
123 200.746536 -219.926590 148.838394 -90.023987 -26.311703 -52.677628 332.896027
[L_Toe3_01]
121 188.832520 -219.859131 -191.078659 -99.789055 13.839650 -67.677216 347.140900
122 188.832520 -219.859131 -191.078659 -99.788925 13.839569 -67.676697 347.140900
123 188.832520 -219.859131 -191.078659 -99.788803 13.839492 -67.676170 347.140900
[planeAlignerLeft]
121 0.812531 -811.448792 -0.314951 0.000000 -90.000000 -90.001900 811.449280
122 0.812531 -811.448792 -0.314951 0.000000 -90.000000 -90.001900 811.449280
123 0.812531 -811.448792 -0.314951 0.000000 -90.000000 -90.001900 811.449280
[L_Toe1_02]
121 413.761139 0.000477 0.000000 0.001384 -25.995373 0.001384 413.761139
122 413.761139 0.000477 0.000000 0.001384 -25.997564 0.001384 413.761139
123 413.761139 0.000477 0.000000 0.001384 -25.999763 0.001384 413.761139
[L_Toe1_03]
121 464.317322 0.000358 -0.000089 0.003734 53.359097 0.003734 464.317322
122 464.317322 0.000358 -0.000089 0.003734 53.359097 0.003734 464.317322
123 464.317322 0.000358 -0.000089 0.003734 53.359097 0.003734 464.317322
[L_Toe2_02]
121 342.235809 -0.000477 0.000238 0.001188 -72.402016 0.001188 342.235809
122 342.235809 -0.000477 0.000238 0.001188 -72.402016 0.001188 342.235809
123 342.235809 -0.000477 0.000238 0.001188 -72.402016 0.001188 342.235809
[L_Toe2_03]
121 420.210846 -0.000715 0.000000 0.029090 85.375511 0.029090 420.210846
122 420.210846 -0.000715 0.000000 0.029090 85.375511 0.029090 420.210846
123 420.210846 -0.000715 0.000000 0.029090 85.375511 0.029090 420.210846
[L_Toe3_02]
121 329.270111 0.000954 0.000000 0.001178 -80.478302 0.001178 329.270111
122 329.270111 0.000954 0.000000 0.001178 -80.478577 0.001178 329.270111
123 329.270111 0.000954 0.000000 0.001178 -80.478851 0.001178 329.270111
[L_Toe3_03]
121 439.137451 -0.001907 0.000954 -179.995956 78.609627 -179.992447 439.137451
122 439.137451 -0.001907 0.000954 -179.995956 78.609138 -179.992447 439.137451
123 439.137451 -0.001907 0.000954 -179.995956 78.608658 -179.992447 439.137451
[planeLockWeightLeft]
121 -0.000954 0.000238 -0.000305 -0.011826 -0.004376 0.005620 0.001029
122 -0.000954 0.000238 -0.000305 -0.011826 -0.004376 0.005620 0.001029
123 -0.000954 0.000238 -0.000305 -0.011826 -0.004376 0.005620 0.001029
[R_Leg01]
121 761.455627 -0.001907 -0.000358 118.912010 -0.525524 37.889439 761.455688
122 761.455627 -0.001907 -0.000358 118.913147 -0.519484 37.897770 761.455688
123 761.455627 -0.001907 -0.000358 118.914261 -0.513437 37.906105 761.455688
[R_Leg02]
121 1441.140625 0.000000 -0.000238 -1.520713 -0.284195 -123.974945 1441.140625
122 1441.140625 0.000000 -0.000238 -1.520084 -0.283776 -123.958702 1441.140625
123 1441.140625 0.000000 -0.000238 -1.519455 -0.283356 -123.942459 1441.140625
[R_Leg03]
121 1686.963989 0.000954 0.001431 0.081803 -0.046940 132.638611 1686.963989
122 1686.963989 0.000954 0.001431 0.081799 -0.046946 132.647949 1686.963989
123 1686.963989 0.000954 0.001431 0.081795 -0.046953 132.657272 1686.963989
[R_Foot]
121 3041.560059 -30.531288 -11.204481 1.567077 -24.826750 66.065109 3041.734131
122 3041.560059 -30.531288 -11.204481 1.561399 -24.827341 66.058304 3041.734131
123 3041.560059 -30.531288 -11.204481 1.555726 -24.827940 66.051506 3041.734131
[planeAlignerRight]
121 -0.635147 -812.270569 -0.364304 0.000000 -89.960434 -90.005180 812.270874
122 -0.635147 -812.270569 -0.364304 0.000000 -89.960434 -90.005180 812.270874
123 -0.635147 -812.270569 -0.364304 0.000000 -89.960434 -90.005180 812.270874
[R_Toe1_01]
121 -188.383347 -224.864899 21.052242 76.762917 -0.409116 -172.749100 294.101532
122 -188.383347 -224.864899 21.052242 76.762993 -0.409416 -172.747040 294.101532
123 -188.383347 -224.864899 21.052242 76.763077 -0.409716 -172.744980 294.101532
[R_Toe2_01]
121 200.637817 -220.002121 -148.787384 -91.737663 32.878727 -59.167595 332.857574
122 200.637817 -220.002121 -148.787384 -91.738358 32.878117 -59.169403 332.857574
123 200.637817 -220.002121 -148.787384 -91.739059 32.877499 -59.171227 332.857574
[R_Toe3_01]
121 188.606735 -220.092957 191.126343 -73.226997 -8.455102 -73.755615 347.192566
122 188.606735 -220.092957 191.126343 -73.226875 -8.455319 -73.755692 347.192566
123 188.606735 -220.092957 191.126343 -73.226753 -8.455542 -73.755760 347.192566
[planeLockWeightRight]
121 -0.000477 0.000000 0.000000 -0.011823 -0.004379 -0.000027 0.000477
122 -0.000477 0.000000 0.000000 -0.011823 -0.004379 -0.000027 0.000477
123 -0.000477 0.000000 0.000000 -0.011823 -0.004379 -0.000027 0.000477
[R_Toe1_02]
121 413.762085 0.000477 -0.000119 0.001394 -24.660925 0.001394 413.762085
122 413.762085 0.000477 -0.000119 0.001394 -24.660746 0.001394 413.762085
123 413.762085 0.000477 -0.000119 0.001394 -24.660555 0.001394 413.762085
[R_Toe1_03]
121 464.317810 0.000000 0.001088 0.006626 69.596481 0.006626 464.317810
122 464.317810 0.000000 0.001088 0.006626 69.596069 0.006626 464.317810
123 464.317810 0.000000 0.001088 0.006626 69.595718 0.006626 464.317810
[R_Toe2_02]
121 342.234741 -0.000954 0.000238 0.001197 -67.215302 0.001197 342.234741
122 342.234741 -0.000954 0.000238 0.001197 -67.216072 0.001197 342.234741
123 342.234741 -0.000954 0.000238 0.001197 -67.216805 0.001197 342.234741
[R_Toe2_03]
121 420.210846 0.000715 -0.000268 0.008231 73.605881 0.008231 420.210846
122 420.210846 0.000715 -0.000268 0.008232 73.607430 0.008232 420.210846
123 420.210846 0.000715 -0.000268 0.008233 73.609001 0.008233 420.210846
[R_Toe3_02]
121 329.270355 -0.000477 -0.000954 0.001184 -74.517220 0.001184 329.270355
122 329.270355 -0.000477 -0.000954 0.001184 -74.517380 0.001184 329.270355
123 329.270355 -0.000477 -0.000954 0.001184 -74.517593 0.001184 329.270355
[R_Toe3_03]
121 439.137939 0.000238 0.001431 -0.011590 83.302299 -0.008088 439.137939
122 439.137939 0.000238 0.001431 -0.011591 83.302917 -0.008088 439.137939
123 439.137939 0.000238 0.001431 -0.011592 83.303505 -0.008089 439.137939
[Rear_Leg02]
121 1162.777710 -0.029802 0.005960 1.008055 -2.807288 -131.409637 1162.777710
122 1162.777710 -0.029802 0.005960 1.007106 -2.807642 -131.400574 1162.777710
123 1162.777710 -0.029802 0.005960 1.006156 -2.807997 -131.391510 1162.777710
[Rear_Leg03]
121 607.192505 -0.013351 -0.073195 0.010542 -0.005002 67.126160 607.192505
122 607.192505 -0.013351 -0.073195 0.010541 -0.005003 67.134384 607.192505
123 607.192505 -0.013351 -0.073195 0.010541 -0.005004 67.142601 607.192505
[Rear_Leg04]
121 995.874512 -0.020504 -0.011921 -0.043878 -0.017224 64.198997 995.874573
122 995.874512 -0.020504 -0.011921 -0.043877 -0.017228 64.190231 995.874573
123 995.874512 -0.020504 -0.011921 -0.043875 -0.017231 64.181496 995.874573
[Rear_Foot]
121 3096.176270 -0.067472 -0.041425 -169.115295 76.027100 18.887112 3096.176270
122 3096.176270 -0.067472 -0.041425 -169.116455 76.025604 18.881668 3096.176270
123 3096.176270 -0.067472 -0.041425 -169.117599 76.024033 18.876200 3096.176270
[planeAlignerCenter]
121 0.350077 0.966311 -838.790894 0.000009 0.000003 -179.999985 838.791565
122 0.350077 0.966311 -838.790894 0.000009 0.000003 -179.999985 838.791565
123 0.350077 0.966311 -838.790894 0.000009 0.000003 -179.999985 838.791565
[Rear_Toe1_01]
121 0.653352 83.966492 -371.173737 0.294667 41.907089 90.410851 380.553192
122 0.653352 83.966492 -371.173737 0.294673 41.907036 90.410896 380.553192
123 0.653352 83.966492 -371.173737 0.294682 41.906982 90.410904 380.553192
[Rear_Toe2_01]
121 178.200760 -294.826019 -362.060547 -7.200536 34.403645 -66.272087 499.765686
122 178.200760 -294.826019 -362.060547 -7.200568 34.403610 -66.272087 499.765686
123 178.200760 -294.826019 -362.060547 -7.200606 34.403595 -66.272102 499.765686
[Rear_Toe3_01]
121 -153.359680 -308.780914 -362.060852 3.290325 33.511333 -112.542213 499.952881
122 -153.359680 -308.780914 -362.060852 3.290334 33.511276 -112.542213 499.952881
123 -153.359680 -308.780914 -362.060852 3.290339 33.511215 -112.542236 499.952881
[planeLockWeightCenter]
121 -0.000062 0.000238 0.000000 -0.011814 -0.004373 -0.000015 0.000246
122 -0.000062 0.000238 0.000000 -0.011814 -0.004373 -0.000015 0.000246
123 -0.000062 0.000238 0.000000 -0.011814 -0.004373 -0.000015 0.000246
[Rear_Toe1_02]
121 379.707825 0.194073 0.000477 -0.000242 -31.681561 0.006934 379.707855
122 379.707825 0.194073 0.000477 -0.000242 -31.681604 0.006934 379.707855
123 379.707825 0.194073 0.000477 -0.000242 -31.681644 0.006934 379.707855
[Rear_Toe1_03]
121 500.129700 0.165701 0.000119 -0.000102 51.917957 0.007296 500.129761
122 500.129700 0.165701 0.000119 -0.000102 51.918083 0.007296 500.129761
123 500.129700 0.165701 0.000119 -0.000102 51.918201 0.007296 500.129761
[Rear_Toe2_02]
121 340.494507 0.000238 -0.000954 0.001192 -69.860168 0.001192 340.494507
122 340.494507 0.000238 -0.000954 0.001192 -69.860229 0.001192 340.494507
123 340.494507 0.000238 -0.000954 0.001192 -69.860245 0.001192 340.494507
[Rear_Toe2_03]
121 433.103577 0.000000 0.000238 0.006698 69.815987 0.006698 433.103546
122 433.103577 0.000000 0.000238 0.006698 69.816032 0.006698 433.103546
123 433.103577 0.000000 0.000238 0.006698 69.816078 0.006698 433.103546
[Rear_Toe3_02]
121 340.494141 -0.000358 -0.000477 0.008290 -67.280258 -0.009462 340.494171
122 340.494141 -0.000358 -0.000477 0.008290 -67.280296 -0.009462 340.494171
123 340.494141 -0.000358 -0.000477 0.008290 -67.280357 -0.009462 340.494171
[Rear_Toe3_03]
121 433.103577 0.001431 -0.000238 -0.000972 65.958984 -0.004547 433.103546
122 433.103577 0.001431 -0.000238 -0.000972 65.958984 -0.004547 433.103546
123 433.103577 0.001431 -0.000238 -0.000972 65.958984 -0.004547 433.103546
[Back_Bone]
121 1312.175781 -701.934692 0.000954 0.000023 -0.000007 -85.606667 1488.125488
122 1312.175781 -701.934692 0.000954 0.000023 -0.000007 -85.606667 1488.125488
123 1312.175781 -701.934692 0.000954 0.000023 -0.000007 -85.606667 1488.125488
[Head]
121 1406.159424 809.709290 0.001431 0.000625 -1.475623 7.768025 1622.625488
122 1406.159424 809.709290 0.001431 0.000625 -1.475623 7.768026 1622.625488
123 1406.159424 809.709290 0.001431 0.000625 -1.475623 7.768025 1622.625488
[Motor_Bone]
121 1158.364380 -417.834747 0.000477 -0.100140 0.073745 -105.915710 1231.419434
122 1158.364380 -417.834747 0.000477 -0.099546 0.074040 -105.915710 1231.419434
123 1158.364380 -417.834747 0.000477 -0.098951 0.074335 -105.915710 1231.419434
[Ping_Mechanism]
121 1233.748535 -441.766998 -0.344259 0.000103 -0.000053 82.120995 1310.455566
122 1233.748535 -441.767151 -0.341116 0.000103 -0.000053 82.120995 1310.455566
123 1233.748535 -441.767273 -0.337974 0.000103 -0.000053 82.120995 1310.455688
[BN_LookIK]
121 193.241119 1380.371704 -0.002861 0.000000 89.965736 -31.038179 1393.832153
122 193.241119 1380.371704 -0.002861 0.000000 89.965736 -31.038179 1393.832153
123 193.241119 1380.371704 -0.002861 0.000000 89.965736 -31.038179 1393.832153
[bottomMouth]
121 -435.092926 615.759399 -0.000954 -0.000022 0.000016 73.527184 753.966492
122 -435.092926 615.759399 -0.000954 -0.000022 0.000016 73.527184 753.966492
123 -435.092926 615.759399 -0.000954 -0.000022 0.000016 73.527184 753.966492
[L_Mouth01]
121 554.440979 7.658243 838.222046 150.204178 23.759130 109.605339 1005.027161
122 554.440979 7.658243 838.222046 150.204178 23.759130 109.605339 1005.027161
123 554.440979 7.658243 838.222046 150.204178 23.759130 109.605339 1005.027161
[L_mouthFront]
121 551.629089 934.514771 339.150421 0.000081 2.804060 79.119301 1136.941284
122 551.629089 934.514771 339.150421 0.000081 2.804060 79.119301 1136.941284
123 551.629089 934.514771 339.150421 0.000081 2.804060 79.119301 1136.941284
[mouthGun]
121 55.332661 1627.420898 0.000000 0.000023 0.000009 -11.038128 1628.361328
122 55.332661 1627.420898 0.000000 0.000023 0.000009 -11.038128 1628.361328
123 55.332661 1627.420898 0.000000 0.000023 0.000009 -11.038128 1628.361328
[R_Mouth01]
121 554.442383 7.659197 -838.223938 29.795891 -23.759109 109.605331 1005.029541
122 554.442383 7.659197 -838.223938 29.795891 -23.759109 109.605331 1005.029541
123 554.442383 7.659197 -838.223938 29.795891 -23.759109 109.605331 1005.029541
[R_mouthFront]
121 551.629089 934.514282 -339.151367 0.000029 -2.803930 79.119133 1136.941162
122 551.629089 934.514282 -339.151367 0.000029 -2.803930 79.119133 1136.941162
123 551.629089 934.514282 -339.151367 0.000029 -2.803930 79.119133 1136.941162
[TopMouth]
121 461.269867 -56.106091 -0.008583 -0.000059 -0.000268 92.025169 464.669525
122 461.269867 -56.106091 -0.008583 -0.000059 -0.000268 92.025169 464.669525
123 461.269867 -56.106091 -0.008583 -0.000059 -0.000268 92.025169 464.669525
[weapon_bone]
121 -987.239868 1448.372803 0.001431 0.000000 89.965736 -31.038221 1752.833740
122 -987.239868 1448.372803 0.001431 0.000000 89.965736 -31.038221 1752.833740
123 -987.239868 1448.372803 0.001431 0.000000 89.965736 -31.038221 1752.833740
